<svg width="766.4900146484375px" height="120.8px" xmlns="http://www.w3.org/2000/svg" viewBox="-133.24500732421876 14.600000000000001 766.4900146484375 120.8" style="background: rgb(40, 41, 47);" preserveAspectRatio="xMidYMid"><defs><filter id="editing-hole" x="-100%" y="-100%" width="300%" height="300%"><feFlood flood-color="#ffffff" result="black"></feFlood><feMorphology operator="dilate" radius="2" in="SourceGraphic" result="erode"></feMorphology><feGaussianBlur in="erode" stdDeviation="4" result="blur"></feGaussianBlur><feOffset in="blur" dx="2" dy="2" result="offset"></feOffset><feComposite operator="atop" in="offset" in2="black" result="merge"></feComposite><feComposite operator="in" in="merge" in2="SourceGraphic" result="inner-shadow"></feComposite></filter></defs><g filter="url(#editing-hole)"><g transform="translate(-22.60792624950409, 98.68000030517578)"><path d="M26.05-29.57L26.05-29.57L26.05-29.57Q27.01-31.49 27.01-33.28L27.01-33.28L27.01-33.28Q27.01-35.07 26.82-36.06L26.82-36.06L26.82-36.06Q26.62-37.06 26.18-37.82L26.18-37.82L26.18-37.82Q25.22-39.49 23.30-39.49L23.30-39.49L23.30-39.49Q20.93-39.49 19.01-37.76L19.01-37.76L19.01-37.76Q16.96-35.97 16.96-33.15L16.96-33.15L16.96-33.15Q16.96-31.36 18.21-29.98L18.21-29.98L18.21-29.98Q19.46-28.61 21.38-27.33L21.38-27.33L21.38-27.33Q23.30-26.05 25.47-24.77L25.47-24.77L25.47-24.77Q27.65-23.49 29.57-21.95L29.57-21.95L29.57-21.95Q33.98-18.43 33.98-13.70L33.98-13.70L33.98-13.70Q33.98-10.50 32.29-7.78L32.29-7.78L32.29-7.78Q30.59-5.06 27.78-3.07L27.78-3.07L27.78-3.07Q21.63 1.28 13.50 1.28L13.50 1.28L13.50 1.28Q6.91 1.28 3.52-0.86L3.52-0.86L3.52-0.86Q0.13-3.01 0.13-6.27L0.13-6.27L0.13-6.27Q0.13-12.10 4.67-13.57L4.67-13.57L4.67-13.57Q5.95-14.02 7.90-14.02L7.90-14.02L7.90-14.02Q9.86-14.02 12.10-13.18L12.10-13.18L12.10-13.18Q11.07-10.56 11.07-8.19L11.07-8.19L11.07-8.19Q11.07-3.07 14.72-3.07L14.72-3.07L14.72-3.07Q17.09-3.07 19.04-4.80L19.04-4.80L19.04-4.80Q20.99-6.53 20.99-8.48L20.99-8.48L20.99-8.48Q20.99-10.43 19.74-11.84L19.74-11.84L19.74-11.84Q18.50-13.25 16.64-14.37L16.64-14.37L16.64-14.37Q14.78-15.49 12.64-16.58L12.64-16.58L12.64-16.58Q10.50-17.66 8.64-19.20L8.64-19.20L8.64-19.20Q4.29-22.72 4.29-28.35L4.29-28.35L4.29-28.35Q4.29-32 6.08-34.85L6.08-34.85L6.08-34.85Q7.87-37.70 10.75-39.62L10.75-39.62L10.75-39.62Q16.51-43.52 23.58-43.52L23.58-43.52L23.58-43.52Q30.66-43.52 34.08-41.41L34.08-41.41L34.08-41.41Q37.50-39.30 37.50-35.71L37.50-35.71L37.50-35.71Q37.50-32.58 35.07-30.59L35.07-30.59L35.07-30.59Q32.96-28.93 30.40-28.93L30.40-28.93L30.40-28.93Q27.84-28.93 26.05-29.57ZM84.93 1.28L84.93 1.28L84.93 1.28Q77.18 1.28 77.18-4.74L77.18-4.74L77.18-4.74Q77.18-7.36 78.30-12.45L78.30-12.45L78.30-12.45Q79.42-17.54 79.81-19.58L79.81-19.58L79.81-19.58Q80.70-24.26 80.70-25.73L80.70-25.73L80.70-25.73Q80.70-28.99 78.27-28.99L78.27-28.99L78.27-28.99Q76.67-28.99 75.14-26.78L75.14-26.78L75.14-26.78Q73.60-24.58 72.90-20.16L72.90-20.16L68.93 0L56.45 1.28L59.90-16.13L59.90-16.13Q60.48-19.01 60.99-22.27L60.99-22.27L60.99-22.27Q61.50-25.54 61.50-26.05L61.50-26.05L61.50-26.05Q61.50-28.99 59.33-28.99L59.33-28.99L59.33-28.99Q57.86-28.99 56.26-26.82L56.26-26.82L56.26-26.82Q54.66-24.64 53.76-20.16L53.76-20.16L49.86 0L37.25 1.28L43.97-32.64L54.40-33.92L53.31-27.46L53.31-27.46Q54.98-30.91 58.05-32.42L58.05-32.42L58.05-32.42Q61.12-33.92 65.92-33.92L65.92-33.92L65.92-33.92Q68.67-33.92 70.46-32.58L70.46-32.58L70.46-32.58Q72.26-31.23 72.83-29.06L72.83-29.06L72.83-29.06Q73.92-31.30 76.70-32.61L76.70-32.61L76.70-32.61Q79.49-33.92 82.91-33.92L82.91-33.92L82.91-33.92Q86.34-33.92 88.03-33.18L88.03-33.18L88.03-33.18Q89.73-32.45 90.75-31.23L90.75-31.23L90.75-31.23Q92.48-28.99 92.48-24.90L92.48-24.90L92.48-24.90Q92.48-20.86 90.75-12.48L90.75-12.48L90.75-12.48Q89.86-8.38 89.86-6.88L89.86-6.88L89.86-6.88Q89.86-5.38 90.72-4.48L90.72-4.48L90.72-4.48Q91.58-3.58 92.86-3.46L92.86-3.46L92.86-3.46Q92.22-1.28 90.02 0L90.02 0L90.02 0Q87.81 1.28 84.93 1.28ZM100.58-1.92L100.58-1.92L100.58-1.92Q99.07-3.58 98.40-6.21L98.40-6.21L98.40-6.21Q97.73-8.83 97.73-13.12L97.73-13.12L97.73-13.12Q97.73-17.41 99.20-21.31L99.20-21.31L99.20-21.31Q100.67-25.22 103.36-28.03L103.36-28.03L103.36-28.03Q108.86-33.92 117.95-33.92L117.95-33.92L117.95-33.92Q121.22-33.92 123.58-32.83L123.58-32.83L134.53-33.92L129.79-8.96L129.79-8.96Q129.60-8.19 129.60-6.78L129.60-6.78L129.60-6.78Q129.60-5.38 130.46-4.48L130.46-4.48L130.46-4.48Q131.33-3.58 132.61-3.46L132.61-3.46L132.61-3.46Q131.97-1.28 129.63 0L129.63 0L129.63 0Q127.30 1.28 124.67 1.28L124.67 1.28L124.67 1.28Q122.05 1.28 120.29 0.29L120.29 0.29L120.29 0.29Q118.53-0.70 118.02-2.37L118.02-2.37L118.02-2.37Q116.99-0.77 114.82 0.26L114.82 0.26L114.82 0.26Q112.64 1.28 109.73 1.28L109.73 1.28L109.73 1.28Q106.82 1.28 104.45 0.51L104.45 0.51L104.45 0.51Q102.08-0.26 100.58-1.92ZM114.08-27.90L114.08-27.90L114.08-27.90Q113.34-26.75 112.70-24.80L112.70-24.80L112.70-24.80Q112.06-22.85 111.01-17.63L111.01-17.63L111.01-17.63Q109.95-12.42 109.95-8.70L109.95-8.70L109.95-8.70Q109.95-4.99 110.53-3.90L110.53-3.90L110.53-3.90Q111.10-2.82 112.13-2.82L112.13-2.82L112.13-2.82Q114.18-2.82 115.68-4.77L115.68-4.77L115.68-4.77Q117.18-6.72 117.76-10.18L117.76-10.18L121.15-28.93L121.15-28.93Q119.81-30.08 118.24-30.08L118.24-30.08L118.24-30.08Q116.67-30.08 115.74-29.57L115.74-29.57L115.74-29.57Q114.82-29.06 114.08-27.90ZM158.02-17.98L158.02-17.98L158.02-17.98Q160.32-22.08 160.32-26.24L160.32-26.24L160.32-26.24Q160.32-28.99 158.34-28.99L158.34-28.99L158.34-28.99Q156.80-28.99 155.20-26.37L155.20-26.37L155.20-26.37Q153.54-23.74 153.02-20.35L153.02-20.35L149.70 0L136.45 1.28L142.98-32.64L153.54-33.92L152.38-27.46L152.38-27.46Q155.52-33.92 162.56-33.92L162.56-33.92L162.56-33.92Q166.27-33.92 168.29-32L168.29-32L168.29-32Q170.30-30.08 170.30-26.14L170.30-26.14L170.30-26.14Q170.30-22.21 167.71-19.71L167.71-19.71L167.71-19.71Q165.12-17.22 160.70-17.22L160.70-17.22L160.70-17.22Q158.78-17.22 158.02-17.98ZM172.35-6.40L172.35-6.40L172.35-6.40Q172.35-8.13 173.25-12.48L173.25-12.48L176.64-29.76L172.86-29.76L173.12-31.68L173.12-31.68Q180.80-33.98 188.22-39.62L188.22-39.62L191.30-39.62L189.76-32.64L194.75-32.64L194.18-29.76L189.25-29.76L185.98-12.48L185.98-12.48Q185.15-8.51 185.15-7.17L185.15-7.17L185.15-7.17Q185.15-4.10 187.84-3.46L187.84-3.46L187.84-3.46Q187.20-1.28 184.90 0L184.90 0L184.90 0Q182.59 1.28 179.33 1.28L179.33 1.28L179.33 1.28Q176.06 1.28 174.21-0.77L174.21-0.77L174.21-0.77Q172.35-2.82 172.35-6.40ZM241.02-13.25L241.02-13.25L241.02-13.25Q242.69-12.03 242.69-9.44L242.69-9.44L242.69-9.44Q242.69-6.85 241.57-5.02L241.57-5.02L241.57-5.02Q240.45-3.20 238.27-1.79L238.27-1.79L238.27-1.79Q233.60 1.22 225.44 1.22L225.44 1.22L225.44 1.22Q217.28 1.22 212.83-3.04L212.83-3.04L212.83-3.04Q208.38-7.30 208.38-14.85L208.38-14.85L208.38-14.85Q208.38-25.54 213.95-33.66L213.95-33.66L213.95-33.66Q218.18-39.68 225.73-42.24L225.73-42.24L225.73-42.24Q229.63-43.52 233.47-43.52L233.47-43.52L233.47-43.52Q237.31-43.52 239.68-43.01L239.68-43.01L239.68-43.01Q242.05-42.50 243.84-41.47L243.84-41.47L243.84-41.47Q247.74-39.23 247.74-35.65L247.74-35.65L247.74-35.65Q247.74-32.38 244.67-29.95L244.67-29.95L244.67-29.95Q241.86-27.78 239.55-27.78L239.55-27.78L239.55-27.78Q237.25-27.78 236.29-28.10L236.29-28.10L236.29-28.10Q236.54-30.40 236.54-31.90L236.54-31.90L236.54-31.90Q236.54-33.41 236.48-34.50L236.48-34.50L236.48-34.50Q236.42-35.58 236.10-36.61L236.10-36.61L236.10-36.61Q235.46-38.98 233.50-38.98L233.50-38.98L233.50-38.98Q231.55-38.98 229.60-37.15L229.60-37.15L229.60-37.15Q227.65-35.33 225.98-32.26L225.98-32.26L225.98-32.26Q222.21-25.28 222.21-17.02L222.21-17.02L222.21-17.02Q222.21-13.06 224.45-10.78L224.45-10.78L224.45-10.78Q226.69-8.51 231.49-8.51L231.49-8.51L231.49-8.51Q235.07-8.51 238.46-10.88L238.46-10.88L238.46-10.88Q239.94-11.90 241.02-13.25ZM263.30-3.52L263.30-3.52L263.30-3.52Q261.31 1.28 254.98 1.28L254.98 1.28L254.98 1.28Q251.78 1.28 249.73-0.96L249.73-0.96L249.73-0.96Q248.06-2.82 248.06-4.93L248.06-4.93L248.06-4.93Q248.06-9.73 250.30-20.22L250.30-20.22L254.98-44.80L267.97-46.08L261.76-13.70L261.76-13.70Q260.67-8.96 260.67-7.30L260.67-7.30L260.67-7.30Q260.67-3.65 263.30-3.52ZM271.52-1.92L271.52-1.92L271.52-1.92Q270.02-3.58 269.34-6.21L269.34-6.21L269.34-6.21Q268.67-8.83 268.67-13.12L268.67-13.12L268.67-13.12Q268.67-17.41 270.14-21.31L270.14-21.31L270.14-21.31Q271.62-25.22 274.30-28.03L274.30-28.03L274.30-28.03Q279.81-33.92 288.90-33.92L288.90-33.92L288.90-33.92Q292.16-33.92 294.53-32.83L294.53-32.83L305.47-33.92L300.74-8.96L300.74-8.96Q300.54-8.19 300.54-6.78L300.54-6.78L300.54-6.78Q300.54-5.38 301.41-4.48L301.41-4.48L301.41-4.48Q302.27-3.58 303.55-3.46L303.55-3.46L303.55-3.46Q302.91-1.28 300.58 0L300.58 0L300.58 0Q298.24 1.28 295.62 1.28L295.62 1.28L295.62 1.28Q292.99 1.28 291.23 0.29L291.23 0.29L291.23 0.29Q289.47-0.70 288.96-2.37L288.96-2.37L288.96-2.37Q287.94-0.77 285.76 0.26L285.76 0.26L285.76 0.26Q283.58 1.28 280.67 1.28L280.67 1.28L280.67 1.28Q277.76 1.28 275.39 0.51L275.39 0.51L275.39 0.51Q273.02-0.26 271.52-1.92ZM285.02-27.90L285.02-27.90L285.02-27.90Q284.29-26.75 283.65-24.80L283.65-24.80L283.65-24.80Q283.01-22.85 281.95-17.63L281.95-17.63L281.95-17.63Q280.90-12.42 280.90-8.70L280.90-8.70L280.90-8.70Q280.90-4.99 281.47-3.90L281.47-3.90L281.47-3.90Q282.05-2.82 283.07-2.82L283.07-2.82L283.07-2.82Q285.12-2.82 286.62-4.77L286.62-4.77L286.62-4.77Q288.13-6.72 288.70-10.18L288.70-10.18L292.10-28.93L292.10-28.93Q290.75-30.08 289.18-30.08L289.18-30.08L289.18-30.08Q287.62-30.08 286.69-29.57L286.69-29.57L286.69-29.57Q285.76-29.06 285.02-27.90ZM328.06-22.46L328.06-22.46L328.06-22.46Q328.96-24.83 328.96-26.88L328.96-26.88L328.96-26.88Q328.96-30.66 325.89-30.66L325.89-30.66L325.89-30.66Q324.29-30.66 322.98-29.22L322.98-29.22L322.98-29.22Q321.66-27.78 321.66-25.98L321.66-25.98L321.66-25.98Q321.66-24.70 322.69-23.68L322.69-23.68L322.69-23.68Q324.16-22.27 327.94-19.97L327.94-19.97L327.94-19.97Q331.71-17.66 333.15-15.78L333.15-15.78L333.15-15.78Q334.59-13.89 334.59-11.30L334.59-11.30L334.59-11.30Q334.59-8.70 333.34-6.34L333.34-6.34L333.34-6.34Q332.10-3.97 329.86-2.30L329.86-2.30L329.86-2.30Q325.06 1.28 317.38 1.28L317.38 1.28L317.38 1.28Q313.22 1.28 310.02-0.90L310.02-0.90L310.02-0.90Q306.82-3.01 306.82-5.50L306.82-5.50L306.82-5.50Q306.82-8 308.64-9.47L308.64-9.47L308.64-9.47Q310.46-10.94 313.15-10.94L313.15-10.94L313.15-10.94Q315.84-10.94 317.50-9.92L317.50-9.92L317.50-9.92Q316.67-7.81 316.67-6.40L316.67-6.40L316.67-6.40Q316.67-2.18 320.26-2.18L320.26-2.18L320.26-2.18Q321.79-2.18 322.82-3.14L322.82-3.14L322.82-3.14Q323.84-4.10 323.84-5.76L323.84-5.76L323.84-5.76Q323.84-9.02 318.34-12.48L318.34-12.48L318.34-12.48Q313.86-15.42 312.83-16.58L312.83-16.58L312.83-16.58Q311.10-18.62 311.10-21.18L311.10-21.18L311.10-21.18Q311.10-23.74 312.32-26.18L312.32-26.18L312.32-26.18Q313.54-28.61 315.78-30.34L315.78-30.34L315.78-30.34Q320.45-33.92 328.58-33.92L328.58-33.92L328.58-33.92Q332.74-33.92 335.20-32.26L335.20-32.26L335.20-32.26Q337.66-30.59 337.66-27.78L337.66-27.78L337.66-27.78Q337.66-24.96 335.97-23.36L335.97-23.36L335.97-23.36Q334.27-21.76 331.20-21.76L331.20-21.76L331.20-21.76Q329.09-21.76 328.06-22.46ZM359.17-22.46L359.17-22.46L359.17-22.46Q360.06-24.83 360.06-26.88L360.06-26.88L360.06-26.88Q360.06-30.66 356.99-30.66L356.99-30.66L356.99-30.66Q355.39-30.66 354.08-29.22L354.08-29.22L354.08-29.22Q352.77-27.78 352.77-25.98L352.77-25.98L352.77-25.98Q352.77-24.70 353.79-23.68L353.79-23.68L353.79-23.68Q355.26-22.27 359.04-19.97L359.04-19.97L359.04-19.97Q362.82-17.66 364.26-15.78L364.26-15.78L364.26-15.78Q365.70-13.89 365.70-11.30L365.70-11.30L365.70-11.30Q365.70-8.70 364.45-6.34L364.45-6.34L364.45-6.34Q363.20-3.97 360.96-2.30L360.96-2.30L360.96-2.30Q356.16 1.28 348.48 1.28L348.48 1.28L348.48 1.28Q344.32 1.28 341.12-0.90L341.12-0.90L341.12-0.90Q337.92-3.01 337.92-5.50L337.92-5.50L337.92-5.50Q337.92-8 339.74-9.47L339.74-9.47L339.74-9.47Q341.57-10.94 344.26-10.94L344.26-10.94L344.26-10.94Q346.94-10.94 348.61-9.92L348.61-9.92L348.61-9.92Q347.78-7.81 347.78-6.40L347.78-6.40L347.78-6.40Q347.78-2.18 351.36-2.18L351.36-2.18L351.36-2.18Q352.90-2.18 353.92-3.14L353.92-3.14L353.92-3.14Q354.94-4.10 354.94-5.76L354.94-5.76L354.94-5.76Q354.94-9.02 349.44-12.48L349.44-12.48L349.44-12.48Q344.96-15.42 343.94-16.58L343.94-16.58L343.94-16.58Q342.21-18.62 342.21-21.18L342.21-21.18L342.21-21.18Q342.21-23.74 343.42-26.18L343.42-26.18L343.42-26.18Q344.64-28.61 346.88-30.34L346.88-30.34L346.88-30.34Q351.55-33.92 359.68-33.92L359.68-33.92L359.68-33.92Q363.84-33.92 366.30-32.26L366.30-32.26L366.30-32.26Q368.77-30.59 368.77-27.78L368.77-27.78L368.77-27.78Q368.77-24.96 367.07-23.36L367.07-23.36L367.07-23.36Q365.38-21.76 362.30-21.76L362.30-21.76L362.30-21.76Q360.19-21.76 359.17-22.46ZM384.26 0L370.56 0L378.37-42.05L378.37-42.05Q384.70-42.75 393.95-42.75L393.95-42.75L393.95-42.75Q403.20-42.75 407.49-40.06L407.49-40.06L407.49-40.06Q411.78-37.38 411.78-31.97L411.78-31.97L411.78-31.97Q411.78-26.56 408.99-23.17L408.99-23.17L408.99-23.17Q406.21-19.78 401.41-18.69L401.41-18.69L401.41-18.69Q402.50-13.38 404.99-9.09L404.99-9.09L404.99-9.09Q407.30-5.06 409.98-3.78L409.98-3.78L409.98-3.78Q409.02-1.09 407.07 0.10L407.07 0.10L407.07 0.10Q405.12 1.28 402.34 1.28L402.34 1.28L402.34 1.28Q399.55 1.28 397.38-0.35L397.38-0.35L397.38-0.35Q395.20-1.98 393.47-4.99L393.47-4.99L393.47-4.99Q389.82-11.52 389.44-21.82L389.44-21.82L389.89-21.82L389.89-21.82Q394.62-21.95 396.99-24.42L396.99-24.42L396.99-24.42Q399.36-26.88 399.36-32.06L399.36-32.06L399.36-32.06Q399.36-38.53 393.92-38.78L393.92-38.78L392.51-38.78L392.51-38.78Q391.94-38.78 391.62-38.72L391.62-38.72L384.26 0ZM428.67 1.28L428.67 1.28L428.67 1.28Q414.59 1.28 414.59-11.97L414.59-11.97L414.59-11.97Q414.59-21.38 419.78-27.46L419.78-27.46L419.78-27.46Q425.28-33.92 434.82-33.92L434.82-33.92L434.82-33.92Q441.73-33.92 445.25-30.72L445.25-30.72L445.25-30.72Q448.77-27.52 448.77-20.80L448.77-20.80L448.77-20.80Q448.77-10.56 443.26-4.61L443.26-4.61L443.26-4.61Q437.89 1.28 428.67 1.28ZM430.34-26.56L430.34-26.56L430.34-26.56Q429.57-24.83 428.96-22.24L428.96-22.24L428.96-22.24Q428.35-19.65 427.58-15.55L427.58-15.55L427.58-15.55Q426.82-11.46 426.82-6.40L426.82-6.40L426.82-6.40Q426.82-4.74 427.36-3.65L427.36-3.65L427.36-3.65Q427.90-2.56 429.38-2.56L429.38-2.56L429.38-2.56Q430.85-2.56 431.78-3.26L431.78-3.26L431.78-3.26Q432.70-3.97 433.41-5.63L433.41-5.63L433.41-5.63Q434.69-8.58 435.71-14.05L435.71-14.05L435.71-14.05Q436.74-19.52 436.83-21.89L436.83-21.89L436.83-21.89Q436.93-24.26 436.93-26.02L436.93-26.02L436.93-26.02Q436.93-27.78 436.42-28.93L436.42-28.93L436.42-28.93Q435.90-30.08 434.46-30.08L434.46-30.08L434.46-30.08Q433.02-30.08 432.06-29.18L432.06-29.18L432.06-29.18Q431.10-28.29 430.34-26.56ZM466.50 1.28L466.50 1.28L466.50 1.28Q452.42 1.28 452.42-11.97L452.42-11.97L452.42-11.97Q452.42-21.38 457.60-27.46L457.60-27.46L457.60-27.46Q463.10-33.92 472.64-33.92L472.64-33.92L472.64-33.92Q479.55-33.92 483.07-30.72L483.07-30.72L483.07-30.72Q486.59-27.52 486.59-20.80L486.59-20.80L486.59-20.80Q486.59-10.56 481.09-4.61L481.09-4.61L481.09-4.61Q475.71 1.28 466.50 1.28ZM468.16-26.56L468.16-26.56L468.16-26.56Q467.39-24.83 466.78-22.24L466.78-22.24L466.78-22.24Q466.18-19.65 465.41-15.55L465.41-15.55L465.41-15.55Q464.64-11.46 464.64-6.40L464.64-6.40L464.64-6.40Q464.64-4.74 465.18-3.65L465.18-3.65L465.18-3.65Q465.73-2.56 467.20-2.56L467.20-2.56L467.20-2.56Q468.67-2.56 469.60-3.26L469.60-3.26L469.60-3.26Q470.53-3.97 471.23-5.63L471.23-5.63L471.23-5.63Q472.51-8.58 473.54-14.05L473.54-14.05L473.54-14.05Q474.56-19.52 474.66-21.89L474.66-21.89L474.66-21.89Q474.75-24.26 474.75-26.02L474.75-26.02L474.75-26.02Q474.75-27.78 474.24-28.93L474.24-28.93L474.24-28.93Q473.73-30.08 472.29-30.08L472.29-30.08L472.29-30.08Q470.85-30.08 469.89-29.18L469.89-29.18L469.89-29.18Q468.93-28.29 468.16-26.56ZM536.45 1.28L536.45 1.28L536.45 1.28Q528.70 1.28 528.70-4.74L528.70-4.74L528.70-4.74Q528.70-7.36 529.82-12.45L529.82-12.45L529.82-12.45Q530.94-17.54 531.33-19.58L531.33-19.58L531.33-19.58Q532.22-24.26 532.22-25.73L532.22-25.73L532.22-25.73Q532.22-28.99 529.79-28.99L529.79-28.99L529.79-28.99Q528.19-28.99 526.66-26.78L526.66-26.78L526.66-26.78Q525.12-24.58 524.42-20.16L524.42-20.16L520.45 0L507.97 1.28L511.42-16.13L511.42-16.13Q512-19.01 512.51-22.27L512.51-22.27L512.51-22.27Q513.02-25.54 513.02-26.05L513.02-26.05L513.02-26.05Q513.02-28.99 510.85-28.99L510.85-28.99L510.85-28.99Q509.38-28.99 507.78-26.82L507.78-26.82L507.78-26.82Q506.18-24.64 505.28-20.16L505.28-20.16L501.38 0L488.77 1.28L495.49-32.64L505.92-33.92L504.83-27.46L504.83-27.46Q506.50-30.91 509.57-32.42L509.57-32.42L509.57-32.42Q512.64-33.92 517.44-33.92L517.44-33.92L517.44-33.92Q520.19-33.92 521.98-32.58L521.98-32.58L521.98-32.58Q523.78-31.23 524.35-29.06L524.35-29.06L524.35-29.06Q525.44-31.30 528.22-32.61L528.22-32.61L528.22-32.61Q531.01-33.92 534.43-33.92L534.43-33.92L534.43-33.92Q537.86-33.92 539.55-33.18L539.55-33.18L539.55-33.18Q541.25-32.45 542.27-31.23L542.27-31.23L542.27-31.23Q544-28.99 544-24.90L544-24.90L544-24.90Q544-20.86 542.27-12.48L542.27-12.48L542.27-12.48Q541.38-8.38 541.38-6.88L541.38-6.88L541.38-6.88Q541.38-5.38 542.24-4.48L542.24-4.48L542.24-4.48Q543.10-3.58 544.38-3.46L544.38-3.46L544.38-3.46Q543.74-1.28 541.54 0L541.54 0L541.54 0Q539.33 1.28 536.45 1.28Z" fill="#bfb6b6"></path></g></g><style>text {
  font-size: 64px;
  font-family: Arial Black;
  dominant-baseline: central;
  text-anchor: middle;
}</style></svg>